<?xml version="1.0" encoding="utf-8"?>
<!-- Generator: Adobe Illustrator 21.0.2, SVG Export Plug-In . SVG Version: 6.00 Build 0)  -->
<svg version="1.1" id="Layer_1" xmlns="http://www.w3.org/2000/svg" xmlns:xlink="http://www.w3.org/1999/xlink" x="0px" y="0px"
	 viewBox="0 0 1828 1660" style="enable-background:new 0 0 1828 1660;" xml:space="preserve">
<style type="text/css">
	.st0{display:none;}
	.st1{fill:#CCCC00;}
</style>
<g>
	<rect class="st0" width="1828" height="1660"/>
	<path class="st1" d="M1539,1013.4l-4.4-364.5l-116.1-114.4h-74.9v-33.9h86.3V348h-331.8v152.6h81.8v33.9H892.7L775.5,352.2V348
		H534.6v152.6H630v33.9H343.7v135.6h72.7v326.3h-72.7v131.4H630v59.3h-95.5V1327h318.2v-139.9h-77.3v-59.3h279.9L1180,1327h163.6
		v-199.2h67.6L1539,1013.4L1539,1013.4z M1180,670.1V981l-200-310.9H1180z M570.9,996.5V670.1H630v326.3H570.9z M775.5,996.5V680.2
		l197.8,316.2H775.5z M1402.7,964.3l-28.2,32.2h-30.9V670.1h27.6l31.5,35.9V964.3L1402.7,964.3z"/>
</g>
</svg>
